<svg version="1.1" xmlns="http://www.w3.org/2000/svg" viewBox="0 0 295.82452392578125 225.82711791992188" width="591.6490478515625" height="451.65423583984375">
   <!-- svg-source:excalidraw -->
   <defs>
      <style>
         @font-face {
         font-family: "Virgil";
          src: url("https://excalidraw.com/Virgil.woff2");
         }
         @font-face {
         font-family: "Cascadia";
          src: url("https://excalidraw.com/Cascadia.woff2");
         }
      </style>
   </defs>
   <g stroke-linecap="round" transform="translate(75.42587280273438 10) rotate(0 72.85000610351562 61.495330810546875)">
      <path d="M50.07 2.72 C59.33 -0.77, 71.73 -0.84, 82.07 0.33 C92.41 1.51, 103.28 5.06, 112.11 9.77 C120.95 14.48, 129.71 20.95, 135.1 28.59 C140.48 36.24, 143.43 46.72, 144.44 55.64 C145.45 64.56, 144.67 73.73, 141.16 82.11 C137.66 90.5, 130.85 99.77, 123.41 105.96 C115.96 112.14, 106.16 116.49, 96.49 119.24 C86.81 121.98, 75.82 123.42, 65.34 122.43 C54.87 121.44, 42.59 117.97, 33.63 113.3 C24.67 108.62, 17.02 101.76, 11.59 94.37 C6.16 86.97, 2.37 77.72, 1.04 68.91 C-0.29 60.11, 0.03 50.11, 3.6 41.54 C7.17 32.97, 13.71 24.19, 22.45 17.49 C31.19 10.8, 49.47 3.96, 56.03 1.37 C62.59 -1.21, 61.61 0.87, 61.83 1.97 M45.99 5.38 C54.51 1.24, 66.72 -0.81, 76.96 -0.36 C87.19 0.1, 98 3.78, 107.39 8.11 C116.77 12.43, 127.2 18.23, 133.25 25.58 C139.29 32.94, 141.97 43.49, 143.64 52.23 C145.31 60.97, 145.89 69.73, 143.28 78.01 C140.66 86.29, 135.16 94.95, 127.94 101.91 C120.72 108.88, 110.18 116.36, 99.94 119.79 C89.7 123.22, 77.12 123.08, 66.49 122.48 C55.87 121.88, 44.98 120.63, 36.19 116.2 C27.4 111.77, 19.4 103.48, 13.77 95.91 C8.13 88.33, 4.39 79.64, 2.38 70.76 C0.37 61.87, -1.23 51.27, 1.7 42.59 C4.63 33.91, 12.57 24.97, 19.96 18.69 C27.35 12.42, 41.67 7.04, 46.03 4.93 C50.39 2.82, 45.65 5.33, 46.12 6.02" stroke="none" stroke-width="0" fill="#fff"></path>
      <path d="M76.25 -0.62 C86.09 -1.25, 97.36 2.6, 106.52 6.77 C115.68 10.94, 124.9 17.31, 131.2 24.41 C137.51 31.52, 142.49 40.37, 144.36 49.4 C146.23 58.44, 145.01 69.84, 142.43 78.63 C139.84 87.42, 135.72 95.66, 128.86 102.15 C121.99 108.63, 110.9 114.02, 101.23 117.54 C91.56 121.07, 81.24 123.43, 70.82 123.28 C60.4 123.13, 48.07 120.8, 38.71 116.64 C29.36 112.47, 20.95 105.5, 14.71 98.26 C8.46 91.03, 3.26 82.17, 1.25 73.24 C-0.76 64.32, -0.09 53.55, 2.65 44.73 C5.39 35.9, 10.82 26.88, 17.7 20.3 C24.57 13.71, 32.09 8.21, 43.89 5.23 C55.7 2.25, 78.94 2.37, 88.54 2.41 C98.13 2.45, 101.64 4.47, 101.48 5.49 M40.21 7.72 C48.85 3.18, 60.6 2.02, 71.27 1.42 C81.95 0.83, 94.61 0.49, 104.26 4.16 C113.91 7.84, 122.58 16.37, 129.19 23.46 C135.79 30.54, 141.49 38.35, 143.88 46.66 C146.26 54.98, 145.46 64.72, 143.51 73.37 C141.56 82.02, 138.52 91.55, 132.2 98.57 C125.87 105.59, 115.39 111.45, 105.55 115.49 C95.71 119.53, 83.56 122.37, 73.15 122.79 C62.74 123.21, 52.48 121.63, 43.09 117.99 C33.7 114.35, 23.43 108.05, 16.79 100.96 C10.14 93.87, 5.69 84.16, 3.21 75.45 C0.73 66.74, -0.04 57.41, 1.92 48.69 C3.88 39.97, 8.64 29.98, 14.97 23.13 C21.3 16.29, 35.73 10.15, 39.92 7.64 C44.11 5.12, 39.83 7.26, 40.1 8.05" stroke="#0b7285" stroke-width="1" fill="none"></path>
   </g>
   <g transform="translate(119.22128295898438 41.75714111328125) rotate(0 32 25)">
      <text x="32" y="18" font-family="Virgil, Segoe UI Emoji" font-size="20px" fill="#0b7285" text-anchor="middle" style="white-space: pre;" direction="ltr">GET</text>
      <text x="32" y="43" font-family="Virgil, Segoe UI Emoji" font-size="20px" fill="#0b7285" text-anchor="middle" style="white-space: pre;" direction="ltr">/users</text>
   </g>
   <g stroke-linecap="round" transform="translate(10 92.83645629882812) rotate(0 72.85000610351562 61.495330810546875)">
      <path d="M68.93 0.81 C79.06 -0.26, 92.21 2.21, 102.08 5.41 C111.96 8.62, 121.5 13.31, 128.19 20.06 C134.87 26.8, 139.48 37.04, 142.18 45.9 C144.89 54.75, 146.02 64.44, 144.43 73.18 C142.84 81.93, 138.67 91.17, 132.65 98.36 C126.64 105.54, 117.85 112.11, 108.34 116.28 C98.83 120.45, 86.24 123.18, 75.61 123.39 C64.98 123.61, 54.26 121.04, 44.57 117.56 C34.87 114.08, 24.59 108.97, 17.45 102.51 C10.3 96.06, 4.56 87.34, 1.7 78.83 C-1.16 70.33, -1.67 60.28, 0.29 51.46 C2.25 42.65, 7.18 33.27, 13.46 25.92 C19.75 18.58, 27.81 11.58, 38 7.39 C48.19 3.21, 67.82 1.86, 74.58 0.82 C81.35 -0.22, 78.68 0.23, 78.58 1.16 M85.76 0.68 C95.59 0.96, 106.24 5.39, 114.68 10.41 C123.12 15.42, 131.44 22.63, 136.4 30.78 C141.37 38.93, 144.09 50.1, 144.48 59.32 C144.86 68.53, 142.83 78.09, 138.71 86.07 C134.58 94.06, 127.27 101.21, 119.74 107.22 C112.22 113.22, 103.69 119.53, 93.56 122.09 C83.43 124.66, 69.7 124.5, 58.98 122.61 C48.27 120.72, 37.42 116.16, 29.27 110.75 C21.13 105.34, 14.96 97.83, 10.11 90.17 C5.25 82.5, 0.93 73.39, 0.14 64.76 C-0.64 56.13, 1.15 46.54, 5.4 38.39 C9.66 30.24, 17.92 21.87, 25.68 15.87 C33.44 9.87, 41.76 4.75, 51.98 2.39 C62.2 0.04, 81.26 2.01, 87.01 1.73 C92.75 1.44, 86.95 -0.41, 86.42 0.7" stroke="none" stroke-width="0" fill="#fff"></path>
      <path d="M98.55 4.35 C108.37 6.38, 118.69 13.01, 125.85 19.49 C133 25.96, 138.16 34.95, 141.46 43.2 C144.77 51.46, 146.8 60.32, 145.66 69.03 C144.52 77.75, 140.58 88.12, 134.62 95.5 C128.67 102.89, 118.96 108.65, 109.92 113.36 C100.89 118.06, 90.96 122.78, 80.42 123.71 C69.88 124.65, 56.73 122.21, 46.68 118.98 C36.63 115.75, 27.38 110.88, 20.11 104.34 C12.85 97.8, 6.41 88.39, 3.08 79.75 C-0.25 71.12, -1.48 61.06, 0.13 52.53 C1.74 44.01, 6.84 35.93, 12.73 28.6 C18.61 21.27, 26.6 13.18, 35.45 8.54 C44.29 3.9, 53.89 0.93, 65.79 0.77 C77.7 0.61, 98.67 5.52, 106.86 7.58 C115.05 9.64, 115.3 12.4, 114.92 13.13 M105.79 7.38 C114.96 10.25, 124.17 17.93, 130.41 24.76 C136.65 31.59, 140.99 39.46, 143.24 48.37 C145.5 57.27, 146.43 69.35, 143.92 78.19 C141.42 87.03, 135 94.78, 128.22 101.39 C121.45 108, 112.86 114.39, 103.26 117.85 C93.66 121.31, 81.07 122.34, 70.63 122.16 C60.19 121.97, 49.94 120.58, 40.62 116.75 C31.3 112.91, 21.06 106.24, 14.73 99.15 C8.39 92.06, 4.75 83, 2.62 74.22 C0.49 65.44, -0.29 55.08, 1.93 46.47 C4.16 37.86, 9.04 29.26, 15.97 22.57 C22.89 15.89, 33.39 9.9, 43.47 6.35 C53.56 2.81, 66.05 1.36, 76.47 1.3 C86.89 1.24, 100.87 5.09, 105.99 5.99 C111.1 6.9, 107.51 5.45, 107.17 6.74" stroke="#0b7285" stroke-width="1" fill="none"></path>
   </g>
   <g transform="translate(51.73736572265625 126.86190795898438) rotate(0 32 25)">
      <text x="32" y="18" font-family="Virgil, Segoe UI Emoji" font-size="20px" fill="#0b7285" text-anchor="middle" style="white-space: pre;" direction="ltr">POST</text>
      <text x="32" y="43" font-family="Virgil, Segoe UI Emoji" font-size="20px" fill="#0b7285" text-anchor="middle" style="white-space: pre;" direction="ltr">/users</text>
   </g>
   <g stroke-linecap="round" transform="translate(140.12451171875 90.70553588867188) rotate(0 72.85000610351562 61.495330810546875)">
      <path d="M106.63 5.75 C116.09 8.6, 124.2 16.39, 130.35 23.51 C136.51 30.63, 141.29 39.55, 143.58 48.49 C145.86 57.43, 146.6 68.26, 144.07 77.15 C141.54 86.04, 135.4 95, 128.39 101.8 C121.39 108.6, 111.44 114.48, 102.04 117.97 C92.65 121.46, 82.36 123.12, 72.01 122.74 C61.65 122.36, 49.59 119.73, 39.92 115.7 C30.24 111.67, 20.31 105.64, 13.95 98.55 C7.6 91.46, 3.65 81.88, 1.77 73.15 C-0.1 64.43, 0.11 54.63, 2.7 46.19 C5.29 37.75, 10.65 29.31, 17.32 22.53 C24 15.75, 33.08 9.22, 42.73 5.51 C52.38 1.81, 63.23 -0.57, 75.21 0.31 C87.19 1.19, 107.04 7.92, 114.61 10.77 C122.19 13.61, 121.45 16.42, 120.66 17.36 M91.51 3.46 C101.27 4.6, 112.15 8.4, 120.1 13.77 C128.06 19.13, 135.22 27.13, 139.25 35.62 C143.29 44.11, 144.44 55.7, 144.3 64.73 C144.17 73.75, 143.25 82.19, 138.45 89.78 C133.65 97.36, 124.32 104.76, 115.5 110.23 C106.68 115.7, 95.85 120.96, 85.54 122.58 C75.23 124.2, 63.45 122.42, 53.65 119.92 C43.85 117.43, 34.55 113.1, 26.73 107.6 C18.92 102.1, 11.1 95.2, 6.76 86.9 C2.42 78.6, 0.45 66.98, 0.68 57.8 C0.91 48.62, 3.37 39.25, 8.14 31.81 C12.92 24.38, 20.73 18.56, 29.33 13.2 C37.93 7.84, 49.12 1.41, 59.75 -0.35 C70.37 -2.1, 87.9 1.9, 93.1 2.7 C98.3 3.49, 91.4 3.56, 90.93 4.42" stroke="none" stroke-width="0" fill="#fff"></path>
      <path d="M106.7 6.87 C115.96 10.16, 125.26 17.87, 131.55 25.03 C137.83 32.2, 142.49 41.19, 144.43 49.86 C146.36 58.53, 146 68.35, 143.17 77.06 C140.34 85.77, 134.5 95.34, 127.47 102.12 C120.44 108.89, 110.58 114.4, 100.99 117.73 C91.4 121.06, 80.41 122.4, 69.93 122.1 C59.46 121.79, 47.3 119.95, 38.16 115.91 C29.03 111.87, 21.36 105.06, 15.12 97.88 C8.88 90.69, 2.98 81.41, 0.74 72.79 C-1.51 64.18, -1.03 54.71, 1.65 46.2 C4.34 37.68, 9.98 28.52, 16.84 21.7 C23.7 14.89, 32.89 8.8, 42.81 5.3 C52.74 1.8, 65.07 0.26, 76.41 0.72 C87.74 1.19, 104.58 6.25, 110.82 8.06 C117.05 9.87, 114.56 10.45, 113.81 11.58 M42.75 5.11 C51.38 0.97, 63.32 -0.04, 73.73 0.16 C84.14 0.36, 95.79 2.07, 105.23 6.29 C114.67 10.51, 124.13 18.18, 130.37 25.48 C136.62 32.78, 140.49 41.45, 142.71 50.09 C144.94 58.73, 146.29 68.77, 143.74 77.32 C141.19 85.86, 134.42 94.87, 127.4 101.35 C120.38 107.84, 110.9 112.62, 101.62 116.23 C92.33 119.84, 81.99 122.86, 71.7 123.01 C61.4 123.17, 49.31 121.33, 39.85 117.15 C30.4 112.98, 21.13 105.31, 14.98 97.97 C8.82 90.63, 5.16 81.75, 2.91 73.11 C0.66 64.46, -0.62 54.44, 1.48 46.1 C3.58 37.77, 8.46 29.78, 15.52 23.11 C22.58 16.44, 39.23 8.91, 43.86 6.09 C48.49 3.28, 43.08 5.28, 43.31 6.22" stroke="#0b7285" stroke-width="1" fill="none"></path>
   </g>
   <g transform="translate(167.2293701171875 124.63906860351562) rotate(0 47 25)">
      <text x="47" y="18" font-family="Virgil, Segoe UI Emoji" font-size="20px" fill="#0b7285" text-anchor="middle" style="white-space: pre;" direction="ltr">GET</text>
      <text x="47" y="43" font-family="Virgil, Segoe UI Emoji" font-size="20px" fill="#0b7285" text-anchor="middle" style="white-space: pre;" direction="ltr">/users/:id</text>
   </g>
</svg>
