<svg width="597" height="290" xmlns="http://www.w3.org/2000/svg" style="vector-effect: non-scaling-stroke;" stroke="null">

 <g stroke="null">
  <title stroke="null">background</title>
  <rect stroke="null" fill="none" id="canvas_background" height="292" width="599" y="-1" x="-1"/>
 </g>
 <g stroke="null">
  <title stroke="null">Layer 1</title>
  <g opacity="0.1" stroke="null" id="svg_1">
   <g stroke="null" id="svg_2">
    <circle fill="#ffffff" stroke="null" id="svg_3" r="9.096359" cy="113.909331" cx="169.282677"/>
    <path fill="#ffffff" stroke="null" id="svg_4" d="m-66.388904,66.12018c66.550393,-17.13164 119.757433,-12.831802 190.184387,29.980371c1.613847,-15.641933 42.093124,-62.584659 91.456878,-29.624872c52.608086,-6.619043 52.608086,48.567862 52.608086,48.567862s28.74977,51.445707 29.132435,70.828838c0.266202,12.96723 -7.420369,16.471429 -14.774187,18.705991c-38.016912,-22.023977 -72.523291,-16.79307 -100.557645,-12.527089c-14.607811,2.217633 -27.269024,4.096697 -36.735817,1.388137c-3.277607,-0.964924 -6.72159,1.01571 -7.653295,4.367553c-0.931706,3.334914 0.998256,6.839113 4.275863,7.804038c12.045621,3.436485 25.904741,1.35428 41.943385,-1.083424c25.089498,-3.808912 55.735955,-8.22725 88.645124,9.056747c-31.24541,55.390047 -117.827472,74.18068 -180.717594,29.946514c-13.726019,0.880282 -31.7279,2.962487 -51.143977,4.587623c-3.577084,0.287784 -0.06655,11.799163 3.410708,23.276685c1.214545,3.995126 47.633444,13.881369 48.548512,17.385568c1.680397,6.585186 -42.209587,1.218852 -45.337456,5.772618c-3.111231,4.587623 5.656783,25.545104 1.613847,35.448276c-2.695291,6.585186 -24.623646,-0.186213 -30.762919,-15.67579c-3.094593,-7.719395 9.866096,-23.005829 6.987791,-29.150874c-8.651551,-18.333564 -16.205021,-35.092777 -17.552666,-35.05892c-9.000941,0.287784 -17.968606,0.304713 -26.686708,-0.118499c-18.168257,-0.846425 -35.704286,-2.573132 -51.942582,-4.012054c-2.063062,-0.186213 -5.523683,7.194612 -9.183954,15.794289c-1.66376,3.927412 30.41353,9.886243 28.766408,13.745941c-3.377432,7.88868 -31.561524,2.573132 -42.076486,12.425518c-10.5316,9.886243 -10.864352,36.497843 -18.617473,39.544972c-4.275863,1.675921 -22.194556,-11.409808 -18.617473,-27.999736c5.224206,-24.207753 33.87415,-55.423904 32.376766,-55.491618c-19.88193,-0.931067 -36.403065,0.033857 -47.749907,6.009617c-42.093124,22.159404 -11.346842,187.009123 93.885968,195.27023c57.316526,4.486052 76.466402,-42.16889 69.34551,-68.187992c-7.037704,-25.714389 -38.582591,-39.697329 -60.461032,-36.362415c-21.828529,3.250272 -25.888103,23.869183 -16.188383,37.835194c1.281095,1.845206 2.761841,3.554985 4.342413,5.146264c3.760097,-3.876626 8.951028,-6.280473 14.707637,-6.280473c11.43003,0 20.663897,9.429174 20.663897,21.025195c0,11.629878 -9.250505,21.008267 -20.663897,21.008267c-10.315311,0 -18.800486,-7.702467 -20.347783,-17.80878c-5.556958,-1.405065 -11.047365,-4.147482 -15.705893,-9.073675c-18.600835,-19.772486 -14.557899,-55.186905 20.697172,-67.341567c39.447746,-13.576656 94.734485,11.646807 96.36497,54.475908c1.613847,42.812173 -37.002019,93.039028 -103.502499,89.17933c-98.744146,-5.789546 -169.770054,-110.102954 -165.793668,-206.392253c3.427345,-81.578434 46.252523,-166.40714 162.815538,-196.387511zm248.21633,92.581958c22.128006,0 40.063337,-18.248921 40.063337,-40.763824c0,-22.514903 -17.935331,-40.763824 -40.063337,-40.763824c-22.111368,0 -40.046699,18.248921 -40.046699,40.763824c-0.016638,22.514903 17.918693,40.763824 40.046699,40.763824z"/>
   </g>
  </g>
 </g>
</svg>